# xmcd CD database file
#
# Track frame offsets:
#	182
#	10860
#	28617
#	39222
#	54495
#	70227
#	80722
#	101277
#	113852
#	119992
#	134462
#	148620
#	160970
#	171485
#	184975
#	195037
#
# Disc length: 3080 seconds
#
# Revision: 1
# Processed by: cddbd v1.4PL0 Copyright (c) Steve Scherf et al.
# Submitted via: CDex 1.40Release
#
DISCID=de0c0610
DTITLE=Various Artist - Country Stars - Live In Concert - Vol. 2
DYEAR=1900
DGENRE=Country
TTITLE0=Faron Young - Hello Walls
TTITLE1=Tanya Tucker - Delta Down
TTITLE2=George Jones - No Show Jones
TTITLE3=JeannieC.Riley - Harper Valley P.T.A.
TTITLE4=Bellamy Brother - Rednick Girls
TTITLE5=Stella Parton - Standard Lie
TTITLE6=Tanya Tucker - Texas When I Die
TTITLE7=Dottie West - Comes My Baby
TTITLE8=Tammy Wynette - Welcome To My World
TTITLE9=Hoyt Axton - Evangeline
TTITLE10=Freddy Fenden - Jambalaya
TTITLE11=Lynn Anderson - I've Never Loved Anyone More
TTITLE12=Bellamy Brother - Sugar Daddy
TTITLE13=Tammy Wynette - Stand By Your Man
TTITLE14=Nitty Gritty Dirt Band - High Horse
TTITLE15=Boxcar Willie - Medley
EXTD=ID3G: 2
EXTT0=
EXTT1=
EXTT2=
EXTT3=
EXTT4=
EXTT5=
EXTT6=
EXTT7=
EXTT8=
EXTT9=
EXTT10=
EXTT11=
EXTT12=
EXTT13=
EXTT14=
EXTT15=
PLAYORDER=
